<svg width="201" height="32" viewBox="0 0 201 32" fill="none" xmlns="http://www.w3.org/2000/svg">
<path d="M184.066 0L187.658 11.0557H199.283L189.878 17.8885L193.47 28.9443L184.066 22.1115L174.661 28.9443L178.254 17.8885L168.849 11.0557H180.474L184.066 0Z" fill="#FFF9C7"/>
<path d="M142.066 0L145.658 11.0557H157.283L147.878 17.8885L151.47 28.9443L142.066 22.1115L132.661 28.9443L136.254 17.8885L126.849 11.0557H138.474L142.066 0Z" fill="#FFE816"/>
<path d="M100.066 0L103.658 11.0557H115.283L105.878 17.8885L109.47 28.9443L100.066 22.1115L90.6614 28.9443L94.2536 17.8885L84.849 11.0557H96.4737L100.066 0Z" fill="#FFE816"/>
<path d="M58.0659 0L61.6581 11.0557H73.2828L63.8783 17.8885L67.4705 28.9443L58.0659 22.1115L48.6614 28.9443L52.2536 17.8885L42.849 11.0557H54.4737L58.0659 0Z" fill="#FFE816"/>
<path d="M16.0659 0L19.6581 11.0557H31.2828L21.8783 17.8885L25.4705 28.9443L16.0659 22.1115L6.66135 28.9443L10.2536 17.8885L0.849013 11.0557H12.4737L16.0659 0Z" fill="#FFE816"/>
</svg>
